<svg width="13" height="20" viewBox="0 0 13 20" fill="none" xmlns="http://www.w3.org/2000/svg">
<g clip-path="url(#clip0_82_194)">
<path d="M3.25082 19.9333C5.04446 19.9333 6.50017 18.445 6.50017 16.6111V13.2889H3.25082C1.45717 13.2889 0.00146484 14.7773 0.00146484 16.6111C0.00146484 18.445 1.45717 19.9333 3.25082 19.9333Z" fill="#0ACF83"/>
<path d="M0.00146484 9.96667C0.00146484 8.13282 1.45717 6.64447 3.25082 6.64447H6.50017V13.2889H3.25082C1.45717 13.2889 0.00146484 11.8005 0.00146484 9.96667Z" fill="#A259FF"/>
<path d="M0 3.32222C0 1.48835 1.45571 -4.76837e-07 3.24935 -4.76837e-07L6.4987 -4.76837e-07V6.64443H3.24935C1.45571 6.64443 0 5.15608 0 3.32222Z" fill="#F24E1E"/>
<path d="M6.49951 -4.76837e-07L9.74888 -4.76837e-07C11.5425 -4.76837e-07 12.9982 1.48835 12.9982 3.32222C12.9982 5.15608 11.5425 6.64443 9.74888 6.64443H6.49951V-4.76837e-07Z" fill="#FF7262"/>
<path d="M12.9982 9.96673C12.9982 11.8006 11.5425 13.2889 9.74888 13.2889C7.95523 13.2889 6.49951 11.8006 6.49951 9.96673C6.49951 8.13287 7.95523 6.64453 9.74888 6.64453C11.5425 6.64453 12.9982 8.13287 12.9982 9.96673Z" fill="#1ABCFE"/>
</g>
<defs>
<clipPath id="clip0_82_194">
<rect width="13" height="19.9333" fill="white"/>
</clipPath>
</defs>
</svg>
