<svg width="18" height="19" viewBox="0 0 18 19" fill="none" xmlns="http://www.w3.org/2000/svg">
<path d="M9 11C9.82843 11 10.5 10.3284 10.5 9.5C10.5 8.67157 9.82843 8 9 8C8.17157 8 7.5 8.67157 7.5 9.5C7.5 10.3284 8.17157 11 9 11Z" stroke="#667085" stroke-width="1.44" stroke-linecap="round" stroke-linejoin="round"/>
<path d="M12.1804 6.31989C12.5987 6.73782 12.9307 7.23411 13.1571 7.78041C13.3836 8.3267 13.5001 8.91227 13.5001 9.50364C13.5001 10.095 13.3836 10.6806 13.1571 11.2269C12.9307 11.7732 12.5987 12.2695 12.1804 12.6874M5.82035 12.6799C5.40196 12.262 5.07004 11.7657 4.84358 11.2194C4.61712 10.6731 4.50056 10.0875 4.50056 9.49614C4.50056 8.90477 4.61712 8.3192 4.84358 7.77291C5.07004 7.22661 5.40196 6.73032 5.82035 6.31239M14.3028 4.19739C15.7089 5.60385 16.4987 7.51116 16.4987 9.49989C16.4987 11.4886 15.7089 13.3959 14.3028 14.8024M3.69785 14.8024C2.29182 13.3959 1.50195 11.4886 1.50195 9.49989C1.50195 7.51116 2.29182 5.60385 3.69785 4.19739" stroke="#667085" stroke-width="1.44" stroke-linecap="round" stroke-linejoin="round"/>
</svg>
